# Blender v2.79 (sub 0) OBJ File: 'assets.blend'
# www.blender.org
mtllib tente.mtl
o tente_Cube.004
v 3.372498 -0.002290 -2.417255
v 2.405163 2.966193 -0.541557
v 3.372498 -0.002290 -2.484097
v 2.405163 2.966193 -0.581451
v 3.439340 -0.002290 -2.417255
v 2.445057 2.966193 -0.541557
v 3.439340 -0.002290 -2.484097
v 2.445057 2.966193 -0.581451
v 2.770148 1.406642 -1.440386
v 2.770148 1.406642 -1.493194
v 2.822956 1.406642 -1.493194
v 2.822956 1.406642 -1.440386
v 4.372917 -0.002290 0.927580
v 2.455689 2.966193 -0.592083
v 4.372917 -0.002290 0.860739
v 2.455689 2.966193 -0.631977
v 4.439759 -0.002290 0.927580
v 2.495583 2.966193 -0.592083
v 4.439759 -0.002290 0.860739
v 2.495583 2.966193 -0.631977
v 3.679620 1.406642 0.358347
v 3.679620 1.406642 0.305540
v 3.732428 1.406642 0.305540
v 3.732428 1.406642 0.358347
v -3.523766 -0.002290 -2.380747
v -2.556431 2.966193 -0.505049
v -3.523766 -0.002290 -2.447589
v -2.556431 2.966193 -0.544943
v -3.590608 -0.002290 -2.380747
v -2.596325 2.966193 -0.505049
v -3.590608 -0.002290 -2.447589
v -2.596325 2.966193 -0.544943
v -2.921416 1.406642 -1.403878
v -2.921416 1.406642 -1.456686
v -2.974224 1.406642 -1.456686
v -2.974224 1.406642 -1.403878
v -4.524185 -0.002290 0.964088
v -2.606957 2.966193 -0.555575
v -4.524185 -0.002290 0.897247
v -2.606957 2.966193 -0.595469
v -4.591027 -0.002290 0.964088
v -2.646851 2.966193 -0.555575
v -4.591027 -0.002290 0.897247
v -2.646851 2.966193 -0.595469
v -3.830888 1.406642 0.394855
v -3.830888 1.406642 0.342048
v -3.883696 1.406642 0.342048
v -3.883696 1.406642 0.394855
v -3.385971 -0.000001 1.449327
v 3.522165 -0.000001 1.285470
v -1.578832 -0.000001 -2.132079
v 1.442638 -0.000001 -2.144951
v -2.482401 3.043542 -0.428773
v 2.482401 3.043542 -0.517138
v 0.000000 -0.000001 2.005756
v 0.000000 -0.000001 -2.005755
v 0.000000 3.139196 -0.087397
v 2.446402 3.036039 -0.651530
v -2.451117 3.036039 -0.565779
v 0.000000 3.131693 -0.231849
v -3.262064 2.986617 -0.538215
v 2.979163 2.979425 -0.601002
v 2.945757 2.971270 -0.736025
v -3.233073 2.980402 -0.675789
v -3.172370 3.113386 -0.669236
v -3.201361 3.119602 -0.531662
v 2.928517 3.116648 -0.596809
v 2.895111 3.108492 -0.731832
v 2.139924 2.880186 -0.455054
v 2.113855 2.872683 -0.592222
v 2.139979 3.026286 -0.463275
v 2.113910 3.018783 -0.600443
v -2.300776 2.881379 -0.403179
v -2.278512 2.873875 -0.542332
v -2.300722 3.027478 -0.411401
v -2.278457 3.019975 -0.550554
v 2.613981 2.864841 -0.536501
v 2.582137 2.857338 -0.672055
v 2.614035 3.010941 -0.544722
v 2.582191 3.003438 -0.680276
v -2.819521 2.866030 -0.474377
v -2.792237 2.858527 -0.612336
v -2.819467 3.012130 -0.482599
v -2.792182 3.004627 -0.620557
v -2.825718 1.528242 0.475949
v 1.875636 1.524613 -1.356757
v 2.891052 1.528242 0.354570
v -0.000014 1.574509 0.908110
v -0.000014 1.570879 -1.086959
v -1.943307 1.524613 -1.309103
vt 0.080709 0.668244
vt 0.081699 0.941602
vt 0.076340 0.938620
vt 0.073854 0.664246
vt 0.070426 0.937480
vt 0.066138 0.662195
vt 0.095268 0.661985
vt 0.092841 0.937501
vt 0.087707 0.940360
vt 0.088382 0.666099
vt 0.089513 0.385271
vt 0.079916 0.388676
vt 0.098239 0.379778
vt 0.071087 0.383088
vt 0.061312 0.379778
vt 0.157775 0.718735
vt 0.161828 0.376860
vt 0.167511 0.374218
vt 0.165148 0.715659
vt 0.173129 0.378054
vt 0.172033 0.719733
vt 0.143593 0.719395
vt 0.150087 0.377804
vt 0.155948 0.380704
vt 0.150840 0.722529
vt 0.145935 0.966289
vt 0.155210 0.962184
vt 0.136471 0.962655
vt 0.164294 0.959000
vt 0.173129 0.963078
vt 0.038960 0.667344
vt 0.045686 0.663132
vt 0.051820 0.937448
vt 0.046559 0.940596
vt 0.053335 0.660839
vt 0.057696 0.936123
vt 0.024212 0.661544
vt 0.031224 0.665440
vt 0.040516 0.939543
vt 0.035295 0.936847
vt 0.021268 0.384778
vt 0.030968 0.387880
vt 0.012373 0.379561
vt 0.039616 0.382018
vt 0.049283 0.378402
vt 0.120958 0.621764
vt 0.128331 0.624840
vt 0.130695 0.966294
vt 0.125012 0.963651
vt 0.135216 0.620766
vt 0.136313 0.962458
vt 0.106777 0.621104
vt 0.114024 0.617970
vt 0.119132 0.959808
vt 0.113271 0.962708
vt 0.109119 0.374218
vt 0.118394 0.378323
vt 0.099656 0.377851
vt 0.127478 0.381507
vt 0.136313 0.377428
vt 0.497425 0.666861
vt 0.485069 0.828856
vt 0.337077 0.793179
vt 0.341482 0.668653
vt 0.817288 0.662977
vt 0.792375 0.916443
vt 0.640415 0.878077
vt 0.660786 0.664864
vt 0.363807 0.204232
vt 0.123561 0.203730
vt 0.015112 0.019698
vt 0.499104 0.019698
vt 0.635091 0.204230
vt 0.499574 0.019718
vt 0.983567 0.019718
vt 0.875175 0.203728
vt 0.792031 0.416875
vt 0.639228 0.453047
vt 0.483363 0.499765
vt 0.334694 0.532648
vt 0.648584 0.665115
vt 0.627599 0.455246
vt 0.628888 0.875942
vt 0.247241 0.524654
vt 0.194245 0.523943
vt 0.195992 0.503987
vt 0.248239 0.502006
vt 0.250828 0.547354
vt 0.192720 0.544946
vt 0.174791 0.455682
vt 0.173286 0.435312
vt 0.194469 0.433780
vt 0.195973 0.454150
vt 0.260701 0.479151
vt 0.191530 0.474987
vt 0.258123 0.456513
vt 0.173286 0.522116
vt 0.175033 0.502160
vt 0.251407 0.479309
vt 0.322060 0.481870
vt 0.322065 0.502862
vt 0.260454 0.411304
vt 0.338290 0.414884
vt 0.338036 0.435870
vt 0.257217 0.433908
vt 0.338290 0.456298
vt 0.193945 0.483047
vt 0.322065 0.543806
vt 0.321792 0.522983
vt 0.190767 0.412830
vt 0.338051 0.477435
vt 0.948614 0.363712
vt 0.983688 0.660837
vt 0.750749 0.387368
vt 0.767558 0.387178
vt 0.247549 0.387368
vt 0.230573 0.387029
vt 0.948089 0.972129
vn -0.6403 -0.5330 0.5530
vn -0.5651 -0.5072 0.6506
vn -0.8605 0.0915 -0.5011
vn -0.7566 0.1313 -0.6405
vn 0.7001 0.4791 -0.5294
vn 0.5994 0.5812 -0.5504
vn 0.5257 -0.3255 0.7859
vn 0.7132 -0.2131 0.6678
vn 0.8869 0.0716 0.4563
vn -0.6204 -0.6084 0.4949
vn 0.5222 0.6315 -0.5731
vn -0.4719 0.3632 -0.8033
vn -0.6677 0.0031 0.7444
vn -0.8184 -0.3793 0.4316
vn -0.5184 -0.7011 -0.4895
vn -0.5197 -0.6418 -0.5638
vn 0.4219 -0.1973 -0.8849
vn 0.6961 0.1468 -0.7028
vn 0.4642 0.6994 0.5435
vn 0.5541 0.6019 0.5751
vn 0.6065 0.5402 0.5834
vn -0.5071 0.0965 0.8564
vn 0.8307 0.2147 -0.5135
vn -0.5750 -0.5289 -0.6242
vn 0.6403 -0.5330 0.5530
vn 0.7566 0.1313 -0.6405
vn 0.8605 0.0915 -0.5011
vn 0.5651 -0.5072 0.6506
vn -0.5994 0.5812 -0.5504
vn -0.7001 0.4791 -0.5294
vn -0.7132 -0.2131 0.6678
vn -0.5257 -0.3255 0.7859
vn -0.8869 0.0716 0.4563
vn 0.6204 -0.6084 0.4949
vn -0.5222 0.6315 -0.5731
vn 0.4719 0.3632 -0.8033
vn 0.6677 0.0031 0.7444
vn 0.5197 -0.6418 -0.5638
vn 0.5184 -0.7011 -0.4895
vn 0.8184 -0.3793 0.4316
vn -0.6961 0.1468 -0.7028
vn -0.4219 -0.1973 -0.8849
vn -0.5541 0.6019 0.5751
vn -0.4642 0.6994 0.5435
vn -0.6065 0.5402 0.5834
vn 0.5071 0.0965 0.8564
vn -0.8307 0.2147 -0.5135
vn 0.5750 -0.5289 -0.6242
vn -0.0125 0.4835 -0.8752
vn 0.4472 0.2938 -0.8448
vn 0.3008 0.3815 -0.8740
vn -0.0107 0.4955 -0.8685
vn 0.0156 0.5544 0.8321
vn 0.8495 0.4562 0.2649
vn 0.6837 0.7212 0.1111
vn 0.0092 0.8722 0.4889
vn -0.8343 0.4516 0.3161
vn -0.4918 0.3028 -0.8163
vn -0.3428 0.3902 -0.8545
vn -0.6942 0.5475 0.4671
vn 0.7190 0.5510 0.4235
vn -0.6842 0.7140 0.1485
vn -0.0077 0.8676 -0.4971
vn -0.5106 0.6003 -0.6155
vn 0.4772 0.5948 -0.6469
vn 0.0173 0.6915 0.7222
vn 0.4569 0.7585 0.4646
vn 0.2251 0.7087 -0.6685
vn -0.2149 0.6188 -0.7555
vn 0.1640 0.0493 0.9852
vn 0.7956 0.2879 0.5329
vn -0.5551 0.2762 -0.7845
vn -0.7755 0.3450 0.5287
vn -0.4278 0.7556 0.4960
vn -0.2355 0.7145 -0.6587
vn 0.1317 -0.0455 -0.9902
vn 0.1776 0.6295 -0.7564
vn 0.5226 0.2084 -0.8267
vn -0.1630 -0.0492 -0.9854
vn -0.1695 -0.0553 -0.9839
vn -0.1039 0.6679 -0.7369
vn -0.1324 0.0455 0.9901
vn -0.1374 0.0557 0.9889
vn -0.1113 0.7536 0.6478
vn -0.0079 0.6979 0.7161
vn 0.0811 0.6670 -0.7407
vn 0.1708 0.0553 0.9837
vn 0.1352 0.7526 0.6444
vn 0.1364 -0.0557 -0.9891
vn 0.0147 0.5713 0.8206
usemtl None
s 1
f 9/1/1 2/2/2 4/3/3 10/4/4
f 10/4/4 4/3/3 8/5/5 11/6/6
f 11/7/6 8/8/5 6/9/7 12/10/8
f 12/10/8 6/9/7 2/2/2 9/1/1
f 5/11/9 12/10/8 9/1/1 1/12/10
f 7/13/11 11/7/6 12/10/8 5/11/9
f 3/14/12 10/4/4 11/6/6 7/15/11
f 1/12/10 9/1/1 10/4/4 3/14/12
f 21/16/13 14/17/14 16/18/15 22/19/16
f 22/19/16 16/18/15 20/20/17 23/21/18
f 23/22/18 20/23/17 18/24/19 24/25/20
f 24/25/20 18/24/19 14/17/14 21/16/13
f 17/26/21 24/25/20 21/16/13 13/27/22
f 19/28/23 23/22/18 24/25/20 17/26/21
f 15/29/24 22/19/16 23/21/18 19/30/23
f 13/27/22 21/16/13 22/19/16 15/29/24
f 33/31/25 34/32/26 28/33/27 26/34/28
f 34/32/26 35/35/29 32/36/30 28/33/27
f 35/37/29 36/38/31 30/39/32 32/40/30
f 36/38/31 33/31/25 26/34/28 30/39/32
f 29/41/33 25/42/34 33/31/25 36/38/31
f 31/43/35 29/41/33 36/38/31 35/37/29
f 27/44/36 31/45/35 35/35/29 34/32/26
f 25/42/34 27/44/36 34/32/26 33/31/25
f 45/46/37 46/47/38 40/48/39 38/49/40
f 46/47/38 47/50/41 44/51/42 40/48/39
f 47/52/41 48/53/43 42/54/44 44/55/42
f 48/53/43 45/46/37 38/49/40 42/54/44
f 41/56/45 37/57/46 45/46/37 48/53/43
f 43/58/47 41/56/45 48/53/43 47/52/41
f 39/59/48 43/60/47 47/50/41 46/47/38
f 37/57/46 39/59/48 46/47/38 45/46/37
f 89/61/49 86/62/50 52/63/51 56/64/52
f 88/65/53 87/66/54 54/67/55 57/68/56
f 85/69/57 90/70/58 51/71/59 49/72/60
f 87/73/54 50/74/61 52/75/51 86/76/50
f 85/77/57 88/65/53 57/68/56 53/78/62
f 90/79/58 89/61/49 56/64/52 51/80/59
f 53/78/62 57/68/56 60/81/63 59/82/64
f 57/68/56 54/67/55 58/83/65 60/81/63
f 79/84/66 67/85/67 68/86/68 80/87/69
f 77/88/70 62/89/71 67/85/67 79/84/66
f 64/90/72 61/91/73 66/92/74 65/93/75
f 82/94/76 64/95/72 65/93/75 84/96/77
f 62/97/71 63/98/78 68/86/68 67/85/67
f 78/99/79 70/100/80 72/101/81 80/87/69
f 81/102/82 73/103/83 75/104/84 83/105/85
f 83/105/85 75/104/84 76/106/86 84/96/77
f 63/107/78 78/99/79 80/87/69 68/86/68
f 69/108/87 77/88/70 79/84/66 71/109/88
f 71/109/88 79/84/66 80/87/69 72/101/81
f 66/92/74 83/105/85 84/96/77 65/93/75
f 61/110/73 81/102/82 83/105/85 66/92/74
f 74/111/89 82/94/76 84/96/77 76/106/86
f 59/82/64 60/81/63 89/61/49 90/79/58
f 49/112/60 55/113/90 88/65/53 85/77/57
f 54/114/55 87/73/54 86/76/50 58/115/65
f 53/116/62 59/117/64 90/70/58 85/69/57
f 55/113/90 50/118/61 87/66/54 88/65/53
f 60/81/63 58/83/65 86/62/50 89/61/49
